<?xml version="1.0" standalone="no"?>
<!DOCTYPE svg PUBLIC "-//W3C//DTD SVG 20010904//EN"
 "http://www.w3.org/TR/2001/REC-SVG-20010904/DTD/svg10.dtd">
<svg version="1.0" xmlns="http://www.w3.org/2000/svg"
 width="140.000000pt" height="140.000000pt" viewBox="0 0 140.000000 140.000000"
 preserveAspectRatio="xMidYMid meet">
<metadata>
Created by potrace 1.11, written by Peter Selinger 2001-2013
</metadata>
<g transform="translate(0.000000,140.000000) scale(0.100000,-0.100000)"
fill="#000000" stroke="none">
<path d="M685 1355 c-10 -64 -14 -70 -31 -48 -11 16 -12 13 -7 -21 4 -25 2
-41 -6 -46 -9 -5 -13 -35 -13 -89 0 -44 -4 -81 -9 -81 -5 0 -17 -19 -26 -42
-9 -24 -19 -36 -21 -28 -3 8 -15 -9 -28 -38 -24 -54 -39 -65 -47 -34 -3 12 -5
10 -6 -7 -2 -37 -32 -141 -41 -141 -5 0 -11 6 -14 13 -3 6 -3 -4 -1 -23 17
-140 17 -163 0 -156 -13 5 -15 2 -9 -17 4 -12 10 -35 14 -52 4 -16 11 -39 16
-49 6 -16 4 -18 -9 -13 -13 5 -10 -7 13 -53 17 -33 30 -63 29 -66 0 -4 14 -16
31 -27 39 -24 35 -29 -65 -73 l-64 -29 -1 -51 0 -52 78 -58 79 -59 164 5 164
5 73 54 72 53 0 49 0 49 -87 43 -87 44 42 28 c45 29 53 38 25 28 -15 -6 -14
-1 5 28 41 62 76 135 58 120 -30 -25 -31 -1 -4 75 20 58 23 72 11 62 -15 -12
-16 -7 -9 45 4 39 3 56 -4 52 -6 -4 -10 12 -11 42 0 26 -3 42 -6 34 -3 -8 -15
14 -26 50 -11 35 -22 58 -25 51 -2 -8 -16 8 -33 37 -16 28 -34 51 -39 51 -6 0
-10 16 -10 36 0 21 -4 33 -10 29 -6 -4 -10 13 -10 45 0 32 -4 49 -10 45 -6 -4
-10 13 -11 42 0 26 -3 42 -6 36 -11 -28 -23 -10 -23 35 -1 42 -2 45 -14 29
-17 -22 -24 -13 -35 45 l-8 43 -8 -50z m46 -130 c6 16 8 14 8 -13 1 -22 5 -31
13 -26 8 5 9 -2 5 -24 -4 -18 -2 -32 3 -32 5 0 3 -18 -5 -41 l-15 -40 60 -56
c108 -99 163 -254 140 -386 -21 -116 -77 -209 -167 -278 -63 -49 -77 -48 -147
13 -197 170 -207 459 -21 642 31 31 61 56 66 56 4 0 2 15 -6 34 -15 36 -10
130 6 120 5 -3 6 10 4 28 -3 18 -3 27 1 21 11 -24 24 -13 25 20 1 29 2 28 11
-13 9 -37 12 -41 19 -25z m-258 -1072 c34 -25 64 -48 66 -50 7 -5 10 -63 4
-63 -3 0 -37 24 -74 52 -56 43 -69 58 -69 80 0 16 3 28 6 28 3 0 33 -21 67
-47z m302 10 c14 -21 25 -41 25 -45 0 -5 -45 -8 -100 -8 -55 0 -100 3 -100 6
0 9 42 68 55 76 5 4 29 8 52 8 38 0 45 -4 68 -37z m225 8 c0 -22 -11 -37 -57
-73 -83 -64 -83 -64 -83 -29 0 26 10 38 66 81 37 27 69 50 70 50 2 0 4 -13 4
-29z m-160 -111 l0 -30 -140 0 -140 0 0 30 0 30 140 0 140 0 0 -30z"/>
<path d="M702 1004 c-7 -12 -11 -13 -17 -5 -5 9 -10 9 -21 0 -24 -20 -15 -28
21 -18 26 8 42 6 64 -6 16 -8 32 -11 35 -6 8 12 -31 44 -43 36 -6 -3 -11 -1
-11 4 0 17 -18 13 -28 -5z"/>
<path d="M627 973 c-13 -12 -7 -23 11 -22 10 0 12 3 4 6 -6 2 -10 9 -6 14 6
10 0 12 -9 2z"/>
<path d="M644 923 c-148 -149 -136 -395 26 -523 l41 -33 63 65 c77 78 101 137
101 249 0 65 -5 85 -33 141 -32 65 -108 148 -136 148 -8 0 -36 -21 -62 -47z
m140 -58 c-4 -8 1 -17 10 -21 9 -3 16 -10 16 -15 0 -13 -54 -11 -68 3 -16 16
-15 39 2 32 8 -3 17 -1 21 5 10 17 25 13 19 -4z m-62 -77 c3 -29 7 -33 33 -33
20 -1 31 -6 33 -18 3 -13 -4 -17 -32 -17 l-36 0 0 -105 c0 -87 -3 -105 -15
-105 -12 0 -15 18 -15 105 l0 105 -30 0 c-39 0 -41 27 -2 32 22 2 28 8 30 36
2 19 9 32 17 32 8 0 15 -13 17 -32z m-38 -303 c5 0 10 -8 12 -18 1 -11 -2 -16
-9 -13 -7 3 -20 9 -29 12 -10 4 -18 10 -18 13 0 14 13 21 24 13 6 -4 15 -7 20
-7z m56 -21 c0 -16 -16 -19 -25 -4 -8 13 4 32 16 25 5 -4 9 -13 9 -21z m32 11
c0 -5 -5 -11 -11 -13 -6 -2 -11 4 -11 13 0 9 5 15 11 13 6 -2 11 -8 11 -13z"/>
<path d="M795 940 c-10 -16 19 -40 36 -29 10 6 10 9 2 9 -7 0 -13 7 -13 15 0
17 -16 20 -25 5z"/>
<path d="M586 931 c-4 -6 -4 -16 0 -23 4 -7 3 -8 -4 -4 -11 6 -17 -12 -13 -36
0 -4 -6 -5 -14 -2 -16 7 -21 -11 -5 -21 15 -9 65 74 53 86 -8 8 -13 7 -17 0z"/>
<path d="M836 881 c-3 -5 1 -14 9 -21 8 -7 15 -20 15 -30 0 -22 25 -44 42 -37
8 4 7 6 -4 6 -11 1 -15 6 -12 16 4 8 1 15 -5 15 -6 0 -8 7 -5 15 4 10 0 15
-12 16 -11 0 -14 3 -6 6 6 2 10 9 6 14 -7 11 -21 12 -28 0z"/>
<path d="M520 831 c0 -12 28 -22 35 -12 3 5 -2 12 -11 15 -21 8 -24 8 -24 -3z"/>
<path d="M510 790 c0 -11 4 -20 10 -20 5 0 6 7 3 17 -5 12 -3 14 7 8 9 -5 11
-4 6 3 -11 19 -26 14 -26 -8z"/>
<path d="M890 740 c0 -13 6 -20 18 -19 11 0 12 2 4 6 -10 4 -10 8 -1 19 9 11
8 14 -5 14 -9 0 -16 -8 -16 -20z"/>
<path d="M504 735 c3 -8 1 -15 -4 -15 -6 0 -10 -4 -10 -10 0 -5 7 -10 15 -10
8 0 15 4 15 9 0 5 3 16 6 25 4 11 1 16 -11 16 -11 0 -15 -5 -11 -15z"/>
<path d="M906 702 c-13 -21 -19 -102 -7 -102 5 0 13 5 16 10 3 6 1 10 -4 10
-14 0 -14 27 0 32 6 2 9 17 7 33 -2 21 -6 26 -12 17z"/>
<path d="M490 678 c0 -4 6 -8 13 -8 8 0 9 -3 1 -8 -13 -8 -12 -58 1 -55 5 2
10 20 12 41 3 30 0 39 -12 39 -8 0 -15 -4 -15 -9z"/>
<path d="M615 400 c16 -16 30 -28 33 -26 8 9 -31 56 -46 56 -11 0 -8 -8 13
-30z"/>
<path d="M780 405 c-13 -14 -20 -28 -17 -32 8 -7 57 35 57 49 0 15 -16 8 -40
-17z"/>
<path d="M410 168 c0 -10 4 -18 8 -18 5 0 18 -9 30 -20 11 -11 23 -16 25 -12
2 4 -4 15 -15 25 -10 9 -18 14 -18 10 0 -4 -7 2 -15 13 -13 17 -14 17 -15 2z"/>
<path d="M510 91 c0 -5 7 -12 16 -15 14 -5 15 -4 4 9 -14 17 -20 19 -20 6z"/>
<path d="M750 150 c6 -11 13 -20 16 -20 2 0 0 9 -6 20 -6 11 -13 20 -16 20 -2
0 0 -9 6 -20z"/>
<path d="M668 133 c6 -2 18 -2 25 0 6 3 1 5 -13 5 -14 0 -19 -2 -12 -5z"/>
<path d="M718 133 c7 -3 16 -2 19 1 4 3 -2 6 -13 5 -11 0 -14 -3 -6 -6z"/>
<path d="M953 146 c-31 -20 -42 -36 -25 -36 11 1 67 49 62 53 -3 3 -20 -5 -37
-17z"/>
<path d="M887 96 c-9 -7 -17 -19 -17 -27 0 -9 3 -10 8 -3 4 6 15 15 26 21 10
6 15 13 10 16 -5 3 -17 0 -27 -7z"/>
<path d="M640 65 c0 -8 4 -15 10 -15 5 0 7 7 4 15 -4 8 -8 15 -10 15 -2 0 -4
-7 -4 -15z"/>
<path d="M676 72 c-3 -3 -6 -9 -6 -14 0 -12 63 -6 72 7 5 6 8 6 8 -2 0 -18 17
-16 23 1 5 12 -4 15 -43 14 -27 0 -51 -2 -54 -6z"/>
</g>
</svg>
